<svg xmlns="http://www.w3.org/2000/svg" width="209" height="191" viewBox="0 0 209 191">
    <g fill="none" fill-rule="evenodd">
        <path fill="#00BFD6" fill-rule="nonzero" d="M169.2 157c-47.76 45.6-85.4 43.39-133.2-2.2-45.59-43.52-48-84-2.42-127.55 47.76-45.59 73.71-25 133.47 3.11C229 59.43 214.79 113.48 169.2 157z" opacity=".4"/>
        <path fill="#FFF" fill-rule="nonzero" stroke="#000" stroke-linecap="round" stroke-linejoin="round" d="M137.87 51.99L87.03 23.52 35.79 51.25l-.77 105.27 102.08.75z"/>
        <path fill="#F2F2F2" fill-rule="nonzero" stroke="#000" d="M56.799 66.628l59.838.44a5.09 5.09 0 0 1 5.053 5.126l-.623 84.998-69.998-.513.623-84.998a5.09 5.09 0 0 1 5.107-5.053z"/>
        <path fill="#FFF" fill-rule="nonzero" stroke="#000" d="M56.799 66.62l59.838.439a5.09 5.09 0 0 1 5.053 5.127l-.138 18.84-69.998-.514.138-18.839a5.09 5.09 0 0 1 5.127-5.053h-.02z"/>
        <path stroke="#000" stroke-linecap="round" stroke-linejoin="round" d="M76.75 47.57l20.25.15M76.79 42.57l20.25.15"/>
        <path fill="#F2F2F2" fill-rule="nonzero" stroke="#000" stroke-linecap="round" stroke-linejoin="round" d="M173.1 52.27l-35.23-.26-50.84-28.49 39.26.29zM137.864 52.012l35.24.259-.772 105.257-35.24-.259z"/>
        <path fill="#FFF" fill-rule="nonzero" stroke="#000" stroke-linecap="round" stroke-linejoin="round" d="M45.736 130.017l24.089.177-.195 26.59-24.09-.177a2.5 2.5 0 0 1-2.48-2.519l.157-21.589a2.5 2.5 0 0 1 2.519-2.482z"/>
        <path fill="#EF5662" fill-rule="nonzero" d="M63.64 139.98l-2.95-.02-4.29 5.1 4.22 5.16 2.94.03-4.22-5.17z"/>
        <path fill="#77787B" fill-rule="nonzero" d="M53.62 139.9h-5.18v2.27h4.55a1.15 1.15 0 0 1 1.18 1.07v3.48a1.27 1.27 0 0 1-1.2 1.18h-4.55v2.26h5.18a2.78 2.78 0 0 0 2.84-2.8v-4.6a2.82 2.82 0 0 0-2.82-2.86z"/>
        <path fill="#FBB03B" fill-rule="nonzero" d="M60.31 134.93l-3.62-1.75a.41.41 0 0 0-.35 0l-3.64 1.7a.41.41 0 0 1-.58-.37v-4.23l8.77.06v4.23a.41.41 0 0 1-.58.36z"/>
        <path stroke="#000" stroke-linecap="round" stroke-linejoin="round" d="M45.736 130.017l24.089.177-.195 26.59-24.09-.177a2.5 2.5 0 0 1-2.48-2.519l.157-21.589a2.5 2.5 0 0 1 2.519-2.482z"/>
        <path fill="#E6E6E6" fill-rule="nonzero" stroke="#000" stroke-linecap="round" stroke-linejoin="round" d="M73.4 156.8l-3.76-.03.19-26.59 3.75 2.41z"/>
        <path fill="#FFF" fill-rule="nonzero" stroke="#000" stroke-linecap="round" stroke-linejoin="round" d="M62.092 103.228l24.089.177-.195 26.589-24.09-.177a2.5 2.5 0 0 1-2.481-2.518l.158-21.59a2.5 2.5 0 0 1 2.519-2.48z"/>
        <path fill="#EF5662" fill-rule="nonzero" d="M80.01 113.19l-2.94-.02-4.29 5.1 4.21 5.17 2.94.02-4.21-5.16z"/>
        <path fill="#77787B" fill-rule="nonzero" d="M70 113.12h-5.18v2.27h4.55a1.15 1.15 0 0 1 1.18 1.07v3.48a1.27 1.27 0 0 1-1.2 1.18H64.8v2.26h5.18a2.78 2.78 0 0 0 2.84-2.8v-4.6a2.82 2.82 0 0 0-2.82-2.86z"/>
        <path fill="#FBB03B" fill-rule="nonzero" d="M76.68 108.15l-3.62-1.75a.41.41 0 0 0-.35 0l-3.64 1.7a.41.41 0 0 1-.58-.37v-4.23l8.77.06v4.23a.41.41 0 0 1-.58.36z"/>
        <path stroke="#000" stroke-linecap="round" stroke-linejoin="round" d="M62.092 103.228l24.089.177-.195 26.589-24.09-.177a2.5 2.5 0 0 1-2.481-2.518l.158-21.59a2.5 2.5 0 0 1 2.519-2.48z"/>
        <path fill="#E6E6E6" fill-rule="nonzero" stroke="#000" stroke-linecap="round" stroke-linejoin="round" d="M89.77 130.02l-3.76-.03.19-26.59 3.75 2.4z"/>
        <path fill="#FFF" fill-rule="nonzero" stroke="#000" stroke-linecap="round" stroke-linejoin="round" d="M79.613 130.256l24.09.176-.196 26.59-24.089-.177a2.5 2.5 0 0 1-2.482-2.518l.159-21.59a2.5 2.5 0 0 1 2.518-2.481z"/>
        <path fill="#EF5662" fill-rule="nonzero" d="M97.51 140.22l-2.94-.02-4.29 5.11 4.22 5.16 2.94.02-4.22-5.16z"/>
        <path fill="#77787B" fill-rule="nonzero" d="M87.5 140.15h-5.18v2.27h4.55a1.15 1.15 0 0 1 1.18 1.07v3.48a1.27 1.27 0 0 1-1.2 1.18H82.3v2.26h5.18a2.78 2.78 0 0 0 2.84-2.8v-4.6a2.82 2.82 0 0 0-2.82-2.86z"/>
        <path fill="#FBB03B" fill-rule="nonzero" d="M94.19 135.18l-3.62-1.75a.41.41 0 0 0-.35 0l-3.64 1.7a.41.41 0 0 1-.58-.37v-4.23l8.77.06v4.23a.41.41 0 0 1-.58.36z"/>
        <path stroke="#000" stroke-linecap="round" stroke-linejoin="round" d="M79.613 130.256l24.09.176-.196 26.59-24.089-.177a2.5 2.5 0 0 1-2.482-2.518l.159-21.59a2.5 2.5 0 0 1 2.518-2.481z"/>
        <path fill="#E6E6E6" fill-rule="nonzero" stroke="#000" stroke-linecap="round" stroke-linejoin="round" d="M107.28 157.05l-3.76-.03.19-26.59 3.75 2.41z"/>
        <path stroke="#000" d="M51.59 82.6l70.02.51"/>
        <path stroke="#000" stroke-linecap="round" stroke-linejoin="round" d="M77.32 75.64l18.67.14"/>
    </g>
</svg>
