<svg xmlns="http://www.w3.org/2000/svg" width="211" height="190" viewBox="0 0 211 190">
    <g fill="none" fill-rule="evenodd" transform="translate(1)">
        <path fill="#00BFD6" fill-rule="nonzero" d="M170.6 156.67c-47.76 45.59-85.4 43.38-133.17-2.21-45.59-43.52-48-84-2.42-127.55 47.76-45.59 73.71-25 133.47 3.11 61.88 29.08 47.71 83.13 2.12 126.65z" opacity=".4"/>
        <circle cx="57.42" cy="131.15" r="16.69" fill="#FFF" fill-rule="nonzero" stroke="#000"/>
        <path stroke="#000" stroke-linecap="round" stroke-linejoin="round" d="M66.07 138.88a10.38 10.38 0 0 1-7.49 3.18"/>
        <circle cx="57.42" cy="131.15" r="5.2" fill="#E6E6E6" fill-rule="nonzero" stroke="#000" stroke-linecap="round" stroke-linejoin="round"/>
        <path fill="#FB3449" fill-rule="nonzero" stroke="#000" stroke-linecap="round" stroke-linejoin="round" d="M21.45 99.49H18a2.31 2.31 0 0 0-2.31 2.31v1.54a1.88 1.88 0 0 0 1.88 1.88h1.24"/>
        <path fill="#FFF" fill-rule="nonzero" stroke="#000" stroke-linecap="round" stroke-linejoin="round" d="M114.85 80.07h-60c-21.125 0-38.25 17.125-38.25 38.25v10.35h79.81l28.59-.09a25.81 25.81 0 0 1-9.91-48.51"/>
        <path fill="#FFF" fill-rule="nonzero" stroke="#000" stroke-linecap="round" stroke-linejoin="round" d="M151.75 109l-10.57 12.39a20.12 20.12 0 0 1-15.31 7.07H16.64a4.19 4.19 0 0 0 4 2.93H126.8a20.12 20.12 0 0 0 15.31-7.07l9.74-11.43a4.78 4.78 0 0 1 3.64-1.68h9.95l5.41-2.21h-19.1zM79.82 64.51h34.1a4.87 4.87 0 0 1 4.87 4.87v5.82a4.87 4.87 0 0 1-4.87 4.87h-34.1V64.51z"/>
        <path fill="#FFF" fill-rule="nonzero" stroke="#000" stroke-linecap="round" stroke-linejoin="round" d="M51.76 80.07h28.07V64.51L55.63 59a3.17 3.17 0 0 0-3.87 3.09v17.98z"/>
        <circle cx="92.32" cy="89.91" r="2.92" fill="#E6E6E6" fill-rule="nonzero" stroke="#000"/>
        <path stroke="#000" stroke-linecap="round" stroke-linejoin="round" d="M54.54 80.07H20.7"/>
        <path fill="#FFF" fill-rule="nonzero" stroke="#000" stroke-linecap="round" stroke-linejoin="round" d="M151.75 109l1.89-2.14a33.3 33.3 0 0 0 6.16-32.4l-6.22-18.16V56l25.55 52.87"/>
        <path fill="#FBB03B" fill-rule="nonzero" stroke="#000" stroke-linecap="round" stroke-linejoin="round" d="M166.81 46a3.95 3.95 0 0 1 1.86 7.43"/>
        <path fill="#FFF" fill-rule="nonzero" stroke="#000" stroke-linecap="round" stroke-linejoin="round" d="M167.89 84.23a3.14 3.14 0 0 1 2.5 5.75"/>
        <path stroke="#000" stroke-linecap="round" stroke-linejoin="round" d="M151.78 54.42h-12.59"/>
        <path fill="#FFF" fill-rule="nonzero" stroke="#000" stroke-linecap="round" stroke-linejoin="round" d="M160.06 59.79l10-.17-5.36-19.95-8.7 4.87a8.13 8.13 0 0 0-3.9 9.22 8.13 8.13 0 0 0 7.96 6.03z"/>
        <circle cx="176.8" cy="131.15" r="16.69" fill="#FFF" fill-rule="nonzero" stroke="#000"/>
        <circle cx="176.8" cy="131.15" r="5.2" fill="#E6E6E6" fill-rule="nonzero" stroke="#000" stroke-linecap="round" stroke-linejoin="round"/>
        <path fill="#E6E6E6" fill-rule="nonzero" stroke="#000" stroke-linecap="round" stroke-linejoin="round" d="M29.02 33.2h22.74v46.87H29.02z"/>
        <path fill="#FFF" fill-rule="nonzero" stroke="#000" stroke-linecap="round" stroke-linejoin="round" d="M5.27 33.2h37.87v46.87H4.79a4.52 4.52 0 0 1-4.52-4.52V38.2a5 5 0 0 1 5-5zM168.38 110.98l3.03-2.11M173.41 108.87h-21.48"/>
        <path fill="#FFF" fill-rule="nonzero" stroke="#000" d="M196.6 131.65a3.19 3.19 0 0 0 3.13-3.73c-1.838-11.232-11.544-19.478-22.925-19.478s-21.087 8.246-22.925 19.478a3.19 3.19 0 0 0 3.13 3.73h39.59z"/>
        <path fill="#FFF" fill-rule="nonzero" stroke="#000" stroke-linecap="round" stroke-linejoin="round" d="M190.48 119a23.28 23.28 0 0 0-7.09-5"/>
        <path fill="#FFF" fill-rule="nonzero" stroke="#000" d="M71.63 95.67H48c-10.15 0-18.38 8.23-18.38 17.38v13.17c0 1.63.51 2.14 1.14 2.14h40.9A16.35 16.35 0 0 0 88 112a16.35 16.35 0 0 0-16.37-16.33z"/>
        <path stroke="#000" stroke-linecap="round" stroke-linejoin="round" d="M49.22 111.43h15.85M49.22 114.33h15.85M49.22 117.23h15.85M46.22 95.67h23.89a8.39 8.39 0 0 1-8.39 8.39h-7.11a8.39 8.39 0 0 1-8.39-8.39z"/>
        <path fill="#EF5662" fill-rule="nonzero" d="M34.94 48.59h-4.6l-6.65 8.02 6.65 8.02h4.6l-6.65-8.02z"/>
        <path fill="#77787B" fill-rule="nonzero" d="M19.29 48.59h-8.1v3.55h7.1a1.8 1.8 0 0 1 1.86 1.66v5.44a2 2 0 0 1-1.86 1.86h-7.1v3.53h8.1a4.34 4.34 0 0 0 4.41-4.41V53a4.41 4.41 0 0 0-4.41-4.41z"/>
    </g>
</svg>
